<svg width="20" height="20" viewBox="0 0 20 20" fill="none" xmlns="http://www.w3.org/2000/svg">
<g clip-path="url(#clip0_3031_21460)">
<g clip-path="url(#clip1_3031_21460)">
<path d="M14.4045 12.2651C14.4045 12.2651 11.6817 20.5535 1.71094 15.5898C1.71094 15.5898 4.4922 20.1203 10.2451 19.9899L18.1462 12.9073L14.4045 12.2651Z" fill="#BEF5C0"/>
<path d="M18.0333 4.07226C16.4263 2.08881 13.5248 1.6172 11.3633 3.06548C9.06977 4.60073 8.45506 7.70634 9.98851 10.0025C11.7157 12.5863 10.7185 16.197 7.66996 17.4396C5.82247 18.1922 3.67597 17.739 2.28785 16.3057C1.99719 16.0047 1.74997 15.6836 1.54952 15.3441C-1.34032 10.7768 -0.0808147 4.71278 4.43434 1.68911C8.89438 -1.29776 14.8862 -0.214056 18.0333 4.07226Z" fill="#4BC979"/>
<path d="M19.7936 8.04756C19.6499 7.35519 19.4428 6.69794 19.1805 6.08251C18.5408 4.7145 16.8119 4.09572 15.3736 4.8717C14.4098 5.39014 13.8335 6.44541 13.9621 7.53246C13.9738 7.63782 13.9989 7.75991 14.0223 7.86192C14.2311 8.47401 14.3797 9.1229 14.4599 9.80355C14.8875 13.4209 13.0417 16.9747 9.83618 18.6989C9.00431 19.1471 8.14571 19.4498 7.28711 19.6254C9.94476 20.3747 12.9365 20.0335 15.5591 18.3093C18.9266 16.0951 20.6188 11.996 19.7953 8.04756H19.7936Z" fill="#4BC979"/>
</g>
</g>
<defs>
<clipPath id="clip0_3031_21460">
<rect width="20" height="20" rx="10" fill="white"/>
</clipPath>
<clipPath id="clip1_3031_21460">
<rect width="20" height="20" fill="white"/>
</clipPath>
</defs>
</svg>
